<svg xmlns="http://www.w3.org/2000/svg" width="600" height="329.157" viewBox="0 0 600 329.157">
  <g id="dollar" transform="translate(0 -78.624)">
    <path id="Polígono_1" data-name="Polígono 1" d="M48.031,16.385a14,14,0,0,1,22.938,0L103.58,62.972A14,14,0,0,1,92.111,85H26.889A14,14,0,0,1,15.42,62.972Z" transform="translate(481 267.624)" fill="#68e61f"/>
    <rect id="Retângulo_1" data-name="Retângulo 1" width="32" height="109" rx="16" transform="translate(525 298.624)" fill="#68e61f"/>
    <path id="Caminho_9" data-name="Caminho 9" d="M486.4,317.919V373.3c0,18.808-50.155,34.482-111.8,34.482S263.841,392.63,263.841,373.822v-6.269L262.8,323.667h.522c8.359,16.2,54.335,28.735,109.714,28.735s112.327-15.673,112.327-34.482H486.4Z" fill="#e2a63b"/>
    <path id="Caminho_10" data-name="Caminho 10" d="M371.465,112.074v54.857H370.42c0,19.331-51.722,34.482-112.849,34.482a268.131,268.131,0,0,1-70.531-7.837l-1.045,1.045a122.07,122.07,0,0,0-38.661-21.42v-1.045l-1.567-57.992c3.657,17.763,52.245,31.869,111.282,31.869S370.42,130.882,370.42,112.074h1.045Z" fill="#f4b844"/>
    <path id="Caminho_11" data-name="Caminho 11" d="M371.465,113.119h0c0,18.808-51.722,33.959-113.371,33.959s-108.147-14.106-111.8-31.869c0-.522-.522-1.567-.522-2.09,0-18.808,50.155-34.482,112.327-34.482C320.265,78.115,371.465,93.788,371.465,113.119Z" fill="#fedb41"/>
    <path id="Caminho_12" data-name="Caminho 12" d="M263.318,323.666h0l-.522-11.494-1.045-47.02c3.657,17.763,52.245,31.869,111.282,31.869s111.282-15.151,112.849-33.437h.522v54.335h-1.045c0,18.808-50.678,34.482-112.327,34.482S271.678,339.862,263.318,323.666Z" fill="#f4b844"/>
    <path id="Caminho_13" data-name="Caminho 13" d="M188.608,358.67a112.1,112.1,0,0,0,30.824-48.065h2.612c11.494,1.045,22.988,1.567,35.527,1.567H262.8v11.494l1.045,43.886h-5.747a270.7,270.7,0,0,1-67.918-7.314Z" fill="#e2a63b"/>
    <path id="Caminho_14" data-name="Caminho 14" d="M263.318,260.972v2.612l1.045,48.588h-5.225c-13.061,0-25.078-.522-36.571-1.567h-2.612a107.217,107.217,0,0,0,5.224-33.959,105.737,105.737,0,0,0-2.612-22.465h2.612c10.971,1.045,21.943,1.567,33.959,1.567l4.7,2.612A5.681,5.681,0,0,0,263.318,260.972Z" fill="#f4b844"/>
    <path id="Caminho_15" data-name="Caminho 15" d="M187.041,193.576a268.127,268.127,0,0,0,70.531,7.837c61.126,0,112.849-15.151,112.849-34.482h1.045V228.58c-56.947,0-103.445,13.584-109.192,30.824l-4.7-2.612q-17.241,0-32.914-1.567h-2.612A105.454,105.454,0,0,0,186,194.1Z" fill="#e2a63b"/>
    <g id="Grupo_2" data-name="Grupo 2">
      <path id="Caminho_16" data-name="Caminho 16" d="M223.09,255.225h0A114.353,114.353,0,0,0,186,193.054a99.275,99.275,0,0,0-39.706-21.943,100.921,100.921,0,0,0-32.914-5.224,112.33,112.33,0,1,0-2.09,224.651,114.6,114.6,0,0,0,77.322-29.78,113.455,113.455,0,0,0,31.347-49.633,104.045,104.045,0,0,0,5.224-33.437C225.18,270.376,223.09,262.539,223.09,255.225Z" fill="#fedb41"/>
      <path id="Caminho_17" data-name="Caminho 17" d="M485.882,262.539v1.045c-1.567,18.286-52.245,33.437-112.849,33.437s-107.625-14.106-111.282-31.869V262.54a6.633,6.633,0,0,1,.522-3.135c5.747-17.241,52.245-30.824,109.192-30.824h1.567C434.682,228.58,485.882,243.731,485.882,262.539Z" fill="#fedb41"/>
    </g>
    <text id="Kz" transform="translate(58 308.624)" fill="#e2a63b" font-size="86" font-family="Arial-BoldMT, Arial" font-weight="700"><tspan x="0" y="0">Kz</tspan></text>
  </g>
</svg>
