<svg xmlns="http://www.w3.org/2000/svg" width="502.018" height="420.166" viewBox="0 0 502.018 420.166">
  <g id="piggy" transform="translate(-5 -45.908)">
    <path id="Caminho_1" data-name="Caminho 1" d="M232.65,85.92a199.082,199.082,0,0,0-34.91,3.07l-.02.01a75.2,75.2,0,0,0-64.87-37.09l1.85,6.02a108.881,108.881,0,0,1,4.06,44.25h-.01a164.326,164.326,0,0,0-81.58,66.14l-9.33,14.74H23.54A12.549,12.549,0,0,0,11,195.61v79.64A12.549,12.549,0,0,0,23.541,287.8H48.7a135.952,135.952,0,0,0,22.29,33.13,108.772,108.772,0,0,1,27.82,72.96,18.505,18.505,0,0,0,18.5,18.5h25.73a18.5,18.5,0,0,0,18.5-18.5,18.505,18.505,0,0,1,18.49-18.49h48.02a18.494,18.494,0,0,1,18.5,18.49,18.505,18.505,0,0,0,18.5,18.5h48.23l84.98-153.6a167.716,167.716,0,0,0,1.39-21.61c0-83.54-74.77-151.26-167-151.26Z" fill="#f8d2c5"/>
    <path id="Caminho_2" data-name="Caminho 2" d="M399.43,256.96a101.844,101.844,0,1,1-1.17.01C398.65,256.96,399.04,256.96,399.43,256.96Z" fill="#f2cd7d"/>
    <path id="Caminho_3" data-name="Caminho 3" d="M129.81,393.89a108.772,108.772,0,0,0-27.82-72.96A135.953,135.953,0,0,1,79.7,287.8H54.54A12.549,12.549,0,0,1,42,275.25V195.61a12.549,12.549,0,0,1,12.541-12.55h24.3l9.33-14.74a164.326,164.326,0,0,1,81.58-66.14h.01a108.9,108.9,0,0,0-3.544-42.48,74.952,74.952,0,0,0-33.366-7.79l1.85,6.02a108.881,108.881,0,0,1,4.06,44.25h-.01a164.326,164.326,0,0,0-81.58,66.14l-9.33,14.74H23.54A12.549,12.549,0,0,0,11,195.61v79.64A12.549,12.549,0,0,0,23.541,287.8H48.7a135.952,135.952,0,0,0,22.29,33.13,108.772,108.772,0,0,1,27.82,72.96,18.505,18.505,0,0,0,18.5,18.5h25.73a18.588,18.588,0,0,0,2.634-.209A18.462,18.462,0,0,1,129.81,393.89Z" fill="#dbb7ad"/>
    <path id="Caminho_4" data-name="Caminho 4" d="M343.76,411.47a101.571,101.571,0,0,1,71.207-153.329,102.427,102.427,0,0,0-15.537-1.181c-.39,0-.78,0-1.17.01a101.564,101.564,0,1,0,16.713,201.938A101.556,101.556,0,0,1,343.76,411.47Z" fill="#d1af6b"/>
    <g id="Grupo_1" data-name="Grupo 1">
      <path id="Caminho_5" data-name="Caminho 5" d="M149.484,168.9a6,6,0,0,0-6,6,15.326,15.326,0,0,1-30.652,0,6,6,0,1,0-12,0,27.326,27.326,0,1,0,54.652,0A6,6,0,0,0,149.484,168.9Z" fill="#284268"/>
      <path id="Caminho_6" data-name="Caminho 6" d="M321.649,244.474a5.967,5.967,0,0,0,3-.807c2.8-1.618,5.7-3.136,8.631-4.512a6,6,0,1,0-5.1-10.861c-3.233,1.521-6.44,3.2-9.531,4.984a6,6,0,0,0,3.008,11.2Z" fill="#284268"/>
      <path id="Caminho_7" data-name="Caminho 7" d="M306.658,256.5a6,6,0,1,0-7.868-9.061,128.385,128.385,0,0,0-19.94,21.833,126.985,126.985,0,0,0-17.515,34.235,6,6,0,0,0,11.388,3.784,114.985,114.985,0,0,1,15.863-31A116.266,116.266,0,0,1,306.658,256.5Z" fill="#284268"/>
      <path id="Caminho_8" data-name="Caminho 8" d="M404.962,251.1c.445-4.62.688-9.277.688-13.916,0-1.858-.048-3.7-.119-5.547a42.357,42.357,0,0,0,37.8-42.057,6,6,0,1,0-12,0,30.337,30.337,0,0,1-26.76,30.085c-9.616-78.5-83.043-139.747-171.923-139.747A207.521,207.521,0,0,0,200.671,82.4,81.25,81.25,0,0,0,132.85,45.908a6,6,0,0,0-5.737,7.757l1.845,6.025a102.124,102.124,0,0,1,4.19,38.22A171.344,171.344,0,0,0,52.1,165.11L44.54,177.06h-21A18.565,18.565,0,0,0,5,195.608v79.646A18.566,18.566,0,0,0,23.545,293.8H44.952A143.3,143.3,0,0,0,66.54,324.948,102.562,102.562,0,0,1,92.812,393.9a24.526,24.526,0,0,0,24.5,24.5h25.729a24.525,24.525,0,0,0,24.5-24.5,12.511,12.511,0,0,1,12.5-12.5h48.021a12.511,12.511,0,0,1,12.5,12.5,24.525,24.525,0,0,0,24.5,24.5h45.061a107.552,107.552,0,1,0,94.839-167.3ZM265.047,406.392a12.511,12.511,0,0,1-12.5-12.5,24.524,24.524,0,0,0-24.5-24.5H180.032a24.524,24.524,0,0,0-24.5,24.5,12.511,12.511,0,0,1-12.5,12.5H117.309a12.511,12.511,0,0,1-12.5-12.5A114.54,114.54,0,0,0,75.446,316.9a130.024,130.024,0,0,1-21.321-31.661A6,6,0,0,0,48.7,281.8H23.545A6.552,6.552,0,0,1,17,275.254V195.608a6.552,6.552,0,0,1,6.545-6.544h24.3a6,6,0,0,0,5.07-2.792l9.33-14.741a159.228,159.228,0,0,1,78.4-63.651,6,6,0,0,0,4.077-5.016A114.09,114.09,0,0,0,141.088,58.4a69.372,69.372,0,0,1,61.029,68.78,6,6,0,1,0,12,0,80.745,80.745,0,0,0-7.28-33.554,198.136,198.136,0,0,1,25.811-1.7c88.777,0,161,65.166,161,145.266a133.463,133.463,0,0,1-.738,13.979A107.528,107.528,0,0,0,303.122,406.4Zm134.386,47.7A95.567,95.567,0,1,1,495,358.525a95.567,95.567,0,0,1-95.567,95.567Z" fill="#284268"/>
      <text id="Kz" transform="translate(360 381.908)" fill="#284268" font-size="64" font-family="Arial-BoldMT, Arial" font-weight="700"><tspan x="0" y="0">Kz</tspan></text>
    </g>
  </g>
</svg>
